<svg xmlns="http://www.w3.org/2000/svg" xmlns:xlink="http://www.w3.org/1999/xlink" width="389" zoomAndPan="magnify" viewBox="0 0 291.75 126.749998" height="169" preserveAspectRatio="xMidYMid meet" version="1.0"><defs><g/><clipPath id="4b1c2e93d9"><path d="M 21 44 L 82 44 L 82 93.730469 L 21 93.730469 Z M 21 44 " clip-rule="nonzero"/></clipPath><clipPath id="c584d511e0"><path d="M 14 14.386719 L 58 14.386719 L 58 67 L 14 67 Z M 14 14.386719 " clip-rule="nonzero"/></clipPath></defs><g clip-path="url(#4b1c2e93d9)"><path fill="#16b0f8" d="M 42.621094 78.089844 C 45.464844 77.714844 48.171875 75.179688 48.222656 75.132812 C 48.214844 75.152344 48.3125 75.332031 50.867188 77.078125 C 53.9375 79.179688 56.722656 76.042969 56.722656 76.042969 C 60.90625 78.644531 63.773438 77.414062 63.773438 77.414062 C 61.230469 79.066406 57.613281 77.972656 57.613281 77.972656 C 52.078125 81.09375 48.332031 77.359375 48.332031 77.359375 C 46.003906 78.46875 42.621094 78.089844 42.621094 78.089844 Z M 21.917969 75.632812 C 23.6875 79.496094 26.226562 82.933594 29.335938 85.746094 C 38.273438 84.3125 41.722656 80.25 41.722656 80.25 C 41.722656 80.25 44.3125 84.746094 50.429688 84.707031 C 56.550781 84.664062 57.898438 80.25 57.898438 80.25 C 57.898438 80.25 60.078125 83.101562 65.726562 84.484375 C 69.355469 85.375 73.613281 83.121094 74.855469 81.402344 C 72.683594 80.867188 71.160156 80.300781 71.160156 80.300781 C 66.804688 82.917969 62.226562 81.015625 62.226562 81.015625 C 66.820312 81.839844 70.636719 76.109375 70.636719 76.109375 C 70.636719 76.109375 72.296875 78.222656 75.976562 79.8125 C 79.214844 74.917969 81.097656 69.054688 81.097656 62.75 C 81.097656 55.785156 78.800781 49.359375 74.925781 44.183594 C 74.394531 44.5625 73.78125 45.0625 73.003906 45.898438 C 66.660156 52.742188 57.59375 59.488281 50.519531 63.910156 C 40.839844 69.960938 30.6875 73.882812 21.917969 75.632812 Z M 30.003906 86.328125 C 35.414062 90.949219 42.433594 93.738281 50.109375 93.738281 C 56.828125 93.738281 63.046875 91.597656 68.121094 87.964844 C 62.707031 88.097656 58.925781 85.015625 58.925781 85.015625 C 50.445312 91.097656 41.722656 84.746094 41.722656 84.746094 C 35.691406 86.433594 32 86.527344 30.003906 86.328125 " fill-opacity="1" fill-rule="nonzero"/></g><path fill="#3871c1" d="M 50.519531 63.910156 C 57.59375 59.488281 66.660156 52.742188 73.003906 45.898438 C 73.78125 45.0625 74.394531 44.5625 74.925781 44.183594 C 75.070312 44.382812 75.21875 44.582031 75.359375 44.785156 C 71.589844 50.589844 64.292969 60.519531 53.960938 68.683594 C 44.796875 75.921875 35.359375 81.113281 27.335938 83.765625 C 25.128906 81.375 23.292969 78.632812 21.917969 75.632812 C 30.6875 73.882812 40.839844 69.960938 50.519531 63.910156 " fill-opacity="1" fill-rule="nonzero"/><path fill="#f7931e" d="M 71.859375 40.675781 C 68.558594 44.28125 62.410156 50.261719 53.769531 55.625 C 46.410156 60.195312 38.726562 63.632812 32.035156 65.464844 C 30.621094 65.847656 29.253906 66.164062 27.941406 66.402344 C 25.964844 66.765625 24.113281 66.953125 22.433594 66.953125 C 21.292969 66.953125 20.265625 66.863281 19.371094 66.695312 C 19.203125 65.402344 19.121094 64.085938 19.121094 62.75 C 19.121094 51.488281 25.125 41.628906 34.109375 36.203125 C 36.875 34.535156 39.921875 33.28125 43.164062 32.542969 C 43.179688 32.535156 43.195312 32.53125 43.214844 32.53125 C 44.054688 32.339844 44.914062 32.179688 45.78125 32.058594 C 45.898438 32.042969 46.019531 32.027344 46.140625 32.011719 C 47 31.902344 47.867188 31.828125 48.746094 31.789062 C 48.800781 31.785156 48.859375 31.785156 48.914062 31.78125 C 49.3125 31.765625 49.707031 31.757812 50.109375 31.757812 C 51.683594 31.757812 53.230469 31.875 54.742188 32.105469 C 61.367188 33.097656 67.304688 36.1875 71.859375 40.675781 " fill-opacity="1" fill-rule="nonzero"/><path fill="#2c3892" d="M 88.460938 27.792969 C 90.867188 24.105469 92.167969 20.832031 91.390625 20.304688 C 90.617188 19.773438 88.042969 22.179688 85.484375 25.765625 L 75.667969 25.839844 L 74.09375 28.144531 L 81.792969 31.515625 C 80.800781 33.148438 79.773438 34.898438 78.875 36.511719 L 73.859375 36.246094 L 73.105469 37.351562 L 77.398438 39.277344 C 77.324219 39.429688 69.582031 49.722656 55.523438 58.449219 C 36.511719 70.253906 17.371094 73.824219 12.769531 66.414062 C 9.578125 61.277344 14.203125 52.21875 23.671875 43.210938 C 8.527344 54.945312 0.171875 68.109375 4.421875 74.949219 C 9.488281 83.105469 30.585938 79.238281 51.464844 66.1875 C 68.351562 55.632812 78.785156 40.304688 78.828125 40.253906 L 80.636719 42.761719 L 81.390625 41.65625 L 80.863281 37.867188 C 82.039062 36.441406 83.296875 34.847656 84.453125 33.332031 L 86.171875 38.566406 L 87.742188 36.261719 L 88.460938 27.792969 " fill-opacity="1" fill-rule="nonzero"/><g clip-path="url(#c584d511e0)"><path fill="#24265d" d="M 49.730469 32.449219 C 50.722656 33.300781 51.921875 33.863281 53.203125 34.109375 C 54.5625 34.371094 55.832031 34.78125 57.226562 35.445312 C 57.226562 35.445312 56.382812 33.84375 54.742188 32.105469 C 52.296875 29.503906 48.085938 26.589844 42.289062 28.230469 C 42.371094 28.175781 42.457031 28.121094 42.546875 28.066406 C 42.128906 27.902344 41.640625 27.765625 41.09375 27.707031 C 41.09375 27.707031 41.382812 27.617188 41.859375 27.613281 C 42.757812 27.601562 43.640625 27.382812 44.425781 26.949219 L 44.453125 26.933594 C 43.976562 26.71875 43.71875 26.355469 43.050781 26.28125 C 43.050781 26.28125 43.433594 26.167969 44.046875 26.195312 C 45.0625 26.242188 46.078125 26.050781 46.996094 25.609375 C 47.046875 25.585938 47.097656 25.5625 47.148438 25.539062 C 46.636719 25.273438 45.980469 25.03125 45.195312 24.945312 C 45.195312 24.945312 45.738281 24.765625 46.492188 24.769531 C 47.996094 24.777344 49.484375 24.464844 50.882812 23.90625 C 50.941406 23.882812 50.996094 23.859375 51.046875 23.839844 C 49.824219 23.472656 48.179688 23.105469 47.386719 23.015625 C 47.386719 23.015625 51.292969 22.609375 54.179688 22.894531 C 54.179688 22.894531 44.4375 16.171875 38.9375 28.433594 C 39.851562 25.371094 40.117188 20.042969 35.257812 16.726562 C 32.976562 15.171875 29.84375 14.382812 29.84375 14.382812 C 30.710938 15.234375 34.96875 20.269531 35.347656 21.039062 C 35.316406 21.015625 34.269531 20.238281 33.039062 19.722656 C 33.058594 19.78125 33.078125 19.839844 33.09375 19.898438 C 33.425781 20.964844 35.441406 23.421875 35.671875 23.890625 C 35.671875 23.890625 34.824219 23.257812 33.753906 22.75 C 34.003906 24.296875 34.722656 25.953125 34.785156 27.351562 C 29.882812 17.808594 19.167969 20.773438 19.167969 20.773438 C 22.691406 21.148438 27.265625 22.605469 27.265625 22.605469 C 26.292969 22.515625 24.238281 22.546875 22.683594 22.679688 C 22.734375 22.714844 22.789062 22.75 22.847656 22.789062 C 24.386719 23.8125 26.097656 24.558594 27.910156 24.929688 C 28.808594 25.113281 29.40625 25.460938 29.40625 25.460938 C 28.445312 25.367188 27.597656 25.492188 26.917969 25.679688 L 27 25.742188 C 28.027344 26.523438 29.234375 27.03125 30.507812 27.246094 C 31.222656 27.367188 31.636719 27.59375 31.636719 27.59375 C 30.816406 27.515625 30.417969 27.882812 29.796875 28.023438 C 29.824219 28.046875 29.851562 28.070312 29.878906 28.09375 C 30.101562 28.285156 30.335938 28.460938 30.582031 28.617188 C 17.769531 24.472656 14.433594 33.75 14.433594 33.75 C 17.3125 31.746094 21.667969 29.875 21.753906 29.839844 C 20.957031 30.40625 19.425781 31.777344 18.335938 32.894531 C 18.347656 32.894531 18.355469 32.890625 18.367188 32.890625 C 20.300781 32.632812 22.164062 32.011719 23.890625 31.101562 C 24.632812 30.707031 25.238281 30.59375 25.238281 30.59375 C 24.453125 31.152344 23.894531 31.800781 23.503906 32.386719 C 23.519531 32.386719 23.539062 32.386719 23.554688 32.382812 C 24.867188 32.300781 26.128906 31.890625 27.257812 31.214844 C 27.847656 30.855469 28.292969 30.75 28.320312 30.746094 C 27.652344 31.222656 27.589844 31.761719 27.214844 32.273438 L 27.238281 32.273438 C 28.324219 32.269531 29.398438 32.003906 30.347656 31.476562 C 30.859375 31.191406 31.230469 31.105469 31.253906 31.101562 C 30.703125 31.492188 30.269531 31.925781 29.921875 32.347656 C 30.433594 32.375 30.921875 32.410156 31.382812 32.445312 C 24.316406 34.183594 24.359375 42.378906 24.359375 42.378906 C 24.773438 41.503906 25.3125 40.746094 25.933594 40.082031 C 26.238281 38.476562 26.882812 37.21875 26.882812 37.21875 C 26.742188 38.023438 27.046875 39.882812 27.050781 39.878906 C 28.070312 38.984375 28.503906 37.367188 29.027344 36.121094 C 29.164062 35.796875 29.261719 35.613281 29.261719 35.613281 C 29.121094 36.398438 29.054688 37.101562 29.039062 37.722656 C 29.046875 37.71875 29.054688 37.714844 29.0625 37.710938 C 30.402344 36.960938 31.472656 35.808594 32.085938 34.40625 C 32.1875 34.171875 32.039062 35.660156 32.035156 36.320312 C 33.847656 34.648438 34.96875 35.121094 34.96875 35.121094 C 34.699219 35.441406 34.410156 35.800781 34.109375 36.203125 C 30.832031 40.597656 26.058594 50.042969 27.941406 66.402344 C 29.253906 66.164062 30.621094 65.847656 32.035156 65.464844 C 30.496094 59.058594 28.667969 45.878906 36.152344 36.09375 C 36.152344 36.167969 36.425781 35.65625 36.667969 35.394531 C 36.710938 35.433594 36.183594 37.648438 36.152344 38.574219 L 36.152344 38.597656 C 36.589844 38.292969 37.046875 38.253906 37.46875 37.703125 C 37.460938 37.726562 37.363281 38.097656 37.046875 38.589844 C 36.445312 39.519531 36.066406 40.578125 35.964844 41.679688 C 35.960938 41.691406 35.960938 41.707031 35.960938 41.71875 C 36.464844 41.40625 37.023438 40.953125 37.515625 40.304688 C 37.507812 40.335938 37.390625 40.832031 37.054688 41.429688 C 36.242188 42.859375 35.671875 44.410156 35.40625 46.035156 C 35.402344 46.042969 35.402344 46.050781 35.402344 46.058594 C 36.371094 45.171875 37.566406 43.914062 38.0625 43.261719 C 38.027344 43.335938 36.339844 46.953125 34.578125 49.328125 C 34.578125 49.328125 42.457031 45.851562 39.863281 35.910156 C 40.238281 37.40625 41.113281 38.722656 42.34375 39.648438 C 42.351562 39.65625 42.363281 39.664062 42.371094 39.671875 C 42.507812 39.121094 42.5625 37.683594 42.585938 37 C 42.585938 37 44.171875 38.914062 44.8125 41.648438 L 44.832031 41.664062 C 44.960938 41.136719 45.125 39.722656 45.152344 39.074219 C 45.152344 39.074219 46.324219 41.457031 48.246094 46.617188 C 48.246094 46.617188 50.617188 37.738281 43.796875 32.917969 C 44.703125 33.386719 45.710938 33.628906 46.738281 33.621094 L 46.769531 33.621094 C 46.617188 33.265625 45.785156 32.324219 45.660156 32.148438 C 45.660156 32.148438 48.667969 33.621094 49.898438 33.710938 L 49.933594 33.710938 C 49.75 33.292969 48.886719 31.960938 48.828125 31.878906 C 48.828125 31.878906 49.425781 32.183594 49.730469 32.449219 " fill-opacity="1" fill-rule="nonzero"/></g><g fill="#2c3892" fill-opacity="1"><g transform="translate(85.671953, 60.663286)"><g><path d="M 25.046875 -29.265625 L 25.046875 -22 L 17.28125 -22 L 17.28125 0 L 8.109375 0 L 8.109375 -22 L 0.40625 -22 L 0.40625 -29.265625 Z M 25.046875 -29.265625 "/></g></g></g><g fill="#2c3892" fill-opacity="1"><g transform="translate(109.152655, 60.663286)"><g><path d="M 16.78125 0 L 11.28125 -10.5 L 11.25 -10.5 L 11.25 0 L 2.0625 0 L 2.0625 -29.265625 L 15.703125 -29.265625 C 18.078125 -29.265625 20.101562 -28.84375 21.78125 -28 C 23.46875 -27.164062 24.726562 -26.023438 25.5625 -24.578125 C 26.40625 -23.128906 26.828125 -21.492188 26.828125 -19.671875 C 26.828125 -17.722656 26.28125 -15.988281 25.1875 -14.46875 C 24.101562 -12.957031 22.539062 -11.867188 20.5 -11.203125 L 26.875 0 Z M 11.25 -16.625 L 14.890625 -16.625 C 15.765625 -16.625 16.421875 -16.820312 16.859375 -17.21875 C 17.304688 -17.613281 17.53125 -18.238281 17.53125 -19.09375 C 17.53125 -19.875 17.300781 -20.484375 16.84375 -20.921875 C 16.394531 -21.359375 15.742188 -21.578125 14.890625 -21.578125 L 11.25 -21.578125 Z M 11.25 -16.625 "/></g></g></g><g fill="#2c3892" fill-opacity="1"><g transform="translate(134.86571, 60.663286)"><g><path d="M 20.84375 -4.421875 L 11.078125 -4.421875 L 9.640625 0 L 0 0 L 10.703125 -29.265625 L 21.296875 -29.265625 L 31.953125 0 L 22.28125 0 Z M 18.609375 -11.328125 L 15.953125 -19.46875 L 13.3125 -11.328125 Z M 18.609375 -11.328125 "/></g></g></g><g fill="#2c3892" fill-opacity="1"><g transform="translate(164.836775, 60.663286)"><g><path d="M 31.546875 -29.265625 L 21.703125 0 L 9.84375 0 L 0 -29.265625 L 9.75 -29.265625 L 15.796875 -9.140625 L 21.78125 -29.265625 Z M 31.546875 -29.265625 "/></g></g></g><g fill="#2c3892" fill-opacity="1"><g transform="translate(194.394438, 60.663286)"><g><path d="M 11.25 -21.953125 L 11.25 -18.359375 L 20.34375 -18.359375 L 20.34375 -11.453125 L 11.25 -11.453125 L 11.25 -7.3125 L 21.578125 -7.3125 L 21.578125 0 L 2.0625 0 L 2.0625 -29.265625 L 21.578125 -29.265625 L 21.578125 -21.953125 Z M 11.25 -21.953125 "/></g></g></g><g fill="#2c3892" fill-opacity="1"><g transform="translate(215.394748, 60.663286)"><g><path d="M 11.25 -6.953125 L 20.09375 -6.953125 L 20.09375 0 L 2.0625 0 L 2.0625 -29.265625 L 11.25 -29.265625 Z M 11.25 -6.953125 "/></g></g></g><g fill="#2c3892" fill-opacity="1"><g transform="translate(85.671953, 94.022722)"><g><path d="M 15.5 -24.96875 C 15.007812 -25.019531 14.664062 -25.046875 14.46875 -25.046875 C 13.78125 -25.046875 13.253906 -24.914062 12.890625 -24.65625 C 12.535156 -24.394531 12.289062 -23.945312 12.15625 -23.3125 L 15.5 -23.3125 L 15.5 -15.671875 L 12.078125 -15.671875 L 12.078125 0 L 2.890625 0 L 2.890625 -15.671875 L 0.40625 -15.671875 L 0.40625 -23.3125 L 2.890625 -23.3125 C 2.953125 -26.34375 3.910156 -28.691406 5.765625 -30.359375 C 7.628906 -32.035156 10.242188 -32.875 13.609375 -32.875 C 13.992188 -32.875 14.625 -32.84375 15.5 -32.78125 Z M 15.5 -24.96875 "/></g></g></g><g fill="#2c3892" fill-opacity="1"><g transform="translate(99.603141, 94.022722)"><g><path d="M 11.25 -19.015625 C 12.1875 -20.367188 13.328125 -21.453125 14.671875 -22.265625 C 16.023438 -23.078125 17.429688 -23.484375 18.890625 -23.484375 L 18.890625 -13.6875 L 16.296875 -13.6875 C 14.554688 -13.6875 13.28125 -13.378906 12.46875 -12.765625 C 11.65625 -12.160156 11.25 -11.085938 11.25 -9.546875 L 11.25 0 L 2.0625 0 L 2.0625 -23.3125 L 11.25 -23.3125 Z M 11.25 -19.015625 "/></g></g></g><g fill="#2c3892" fill-opacity="1"><g transform="translate(116.924205, 94.022722)"><g><path d="M 24.640625 -11.859375 C 24.640625 -11.234375 24.597656 -10.628906 24.515625 -10.046875 L 9.75 -10.046875 C 9.894531 -8.035156 10.738281 -7.03125 12.28125 -7.03125 C 13.269531 -7.03125 13.984375 -7.484375 14.421875 -8.390625 L 24.140625 -8.390625 C 23.816406 -6.734375 23.125 -5.25 22.0625 -3.9375 C 21 -2.632812 19.660156 -1.601562 18.046875 -0.84375 C 16.429688 -0.0820312 14.660156 0.296875 12.734375 0.296875 C 10.421875 0.296875 8.359375 -0.1875 6.546875 -1.15625 C 4.742188 -2.125 3.335938 -3.507812 2.328125 -5.3125 C 1.328125 -7.113281 0.828125 -9.226562 0.828125 -11.65625 C 0.828125 -14.082031 1.328125 -16.195312 2.328125 -18 C 3.335938 -19.8125 4.742188 -21.195312 6.546875 -22.15625 C 8.359375 -23.125 10.421875 -23.609375 12.734375 -23.609375 C 15.046875 -23.609375 17.101562 -23.128906 18.90625 -22.171875 C 20.71875 -21.222656 22.125 -19.867188 23.125 -18.109375 C 24.132812 -16.347656 24.640625 -14.265625 24.640625 -11.859375 Z M 15.34375 -14.0625 C 15.34375 -14.832031 15.09375 -15.414062 14.59375 -15.8125 C 14.09375 -16.207031 13.472656 -16.40625 12.734375 -16.40625 C 11.109375 -16.40625 10.15625 -15.625 9.875 -14.0625 Z M 15.34375 -14.0625 "/></g></g></g><g fill="#2c3892" fill-opacity="1"><g transform="translate(140.404907, 94.022722)"><g><path d="M 24.640625 -11.859375 C 24.640625 -11.234375 24.597656 -10.628906 24.515625 -10.046875 L 9.75 -10.046875 C 9.894531 -8.035156 10.738281 -7.03125 12.28125 -7.03125 C 13.269531 -7.03125 13.984375 -7.484375 14.421875 -8.390625 L 24.140625 -8.390625 C 23.816406 -6.734375 23.125 -5.25 22.0625 -3.9375 C 21 -2.632812 19.660156 -1.601562 18.046875 -0.84375 C 16.429688 -0.0820312 14.660156 0.296875 12.734375 0.296875 C 10.421875 0.296875 8.359375 -0.1875 6.546875 -1.15625 C 4.742188 -2.125 3.335938 -3.507812 2.328125 -5.3125 C 1.328125 -7.113281 0.828125 -9.226562 0.828125 -11.65625 C 0.828125 -14.082031 1.328125 -16.195312 2.328125 -18 C 3.335938 -19.8125 4.742188 -21.195312 6.546875 -22.15625 C 8.359375 -23.125 10.421875 -23.609375 12.734375 -23.609375 C 15.046875 -23.609375 17.101562 -23.128906 18.90625 -22.171875 C 20.71875 -21.222656 22.125 -19.867188 23.125 -18.109375 C 24.132812 -16.347656 24.640625 -14.265625 24.640625 -11.859375 Z M 15.34375 -14.0625 C 15.34375 -14.832031 15.09375 -15.414062 14.59375 -15.8125 C 14.09375 -16.207031 13.472656 -16.40625 12.734375 -16.40625 C 11.109375 -16.40625 10.15625 -15.625 9.875 -14.0625 Z M 15.34375 -14.0625 "/></g></g></g><g fill="#f7931f" fill-opacity="1"><g transform="translate(96.132162, 26.446433)"><g><path d="M 2.0625 -5.203125 L 2.0625 -1.65625 C 2.0625 -1.351562 2.125 -1.140625 2.25 -1.015625 C 2.375 -0.898438 2.59375 -0.84375 2.90625 -0.84375 L 3.640625 -0.84375 L 3.640625 0 L 2.734375 0 C 2.179688 0 1.765625 -0.125 1.484375 -0.375 C 1.203125 -0.632812 1.0625 -1.0625 1.0625 -1.65625 L 1.0625 -5.203125 L 0.28125 -5.203125 L 0.28125 -6.03125 L 1.0625 -6.03125 L 1.0625 -7.546875 L 2.0625 -7.546875 L 2.0625 -6.03125 L 3.640625 -6.03125 L 3.640625 -5.203125 Z M 2.0625 -5.203125 "/></g></g></g><g fill="#f7931f" fill-opacity="1"><g transform="translate(101.080819, 26.446433)"><g><path d="M 1.84375 -5.046875 C 2.019531 -5.390625 2.269531 -5.65625 2.59375 -5.84375 C 2.925781 -6.039062 3.328125 -6.140625 3.796875 -6.140625 L 3.796875 -5.109375 L 3.53125 -5.109375 C 2.40625 -5.109375 1.84375 -4.5 1.84375 -3.28125 L 1.84375 0 L 0.84375 0 L 0.84375 -6.03125 L 1.84375 -6.03125 Z M 1.84375 -5.046875 "/></g></g></g><g fill="#f7931f" fill-opacity="1"><g transform="translate(106.128422, 26.446433)"><g><path d="M 0.46875 -3.03125 C 0.46875 -3.644531 0.59375 -4.1875 0.84375 -4.65625 C 1.09375 -5.125 1.4375 -5.484375 1.875 -5.734375 C 2.3125 -5.992188 2.796875 -6.125 3.328125 -6.125 C 3.859375 -6.125 4.316406 -6.007812 4.703125 -5.78125 C 5.097656 -5.550781 5.390625 -5.265625 5.578125 -4.921875 L 5.578125 -6.03125 L 6.59375 -6.03125 L 6.59375 0 L 5.578125 0 L 5.578125 -1.125 C 5.378906 -0.769531 5.082031 -0.476562 4.6875 -0.25 C 4.300781 -0.0195312 3.847656 0.09375 3.328125 0.09375 C 2.785156 0.09375 2.296875 -0.0351562 1.859375 -0.296875 C 1.429688 -0.554688 1.09375 -0.925781 0.84375 -1.40625 C 0.59375 -1.882812 0.46875 -2.425781 0.46875 -3.03125 Z M 5.578125 -3.03125 C 5.578125 -3.476562 5.484375 -3.867188 5.296875 -4.203125 C 5.117188 -4.546875 4.875 -4.804688 4.5625 -4.984375 C 4.25 -5.171875 3.90625 -5.265625 3.53125 -5.265625 C 3.15625 -5.265625 2.8125 -5.175781 2.5 -5 C 2.195312 -4.820312 1.953125 -4.5625 1.765625 -4.21875 C 1.585938 -3.882812 1.5 -3.488281 1.5 -3.03125 C 1.5 -2.570312 1.585938 -2.171875 1.765625 -1.828125 C 1.953125 -1.484375 2.195312 -1.222656 2.5 -1.046875 C 2.8125 -0.867188 3.15625 -0.78125 3.53125 -0.78125 C 3.90625 -0.78125 4.25 -0.867188 4.5625 -1.046875 C 4.875 -1.222656 5.117188 -1.484375 5.296875 -1.828125 C 5.484375 -2.171875 5.578125 -2.570312 5.578125 -3.03125 Z M 5.578125 -3.03125 "/></g></g></g><g fill="#f7931f" fill-opacity="1"><g transform="translate(114.507191, 26.446433)"><g><path d="M 3.09375 -0.921875 L 4.96875 -6.03125 L 6.03125 -6.03125 L 3.65625 0 L 2.5 0 L 0.125 -6.03125 L 1.203125 -6.03125 Z M 3.09375 -0.921875 "/></g></g></g><g fill="#f7931f" fill-opacity="1"><g transform="translate(121.621662, 26.446433)"><g><path d="M 6.34375 -3.25 C 6.34375 -3.050781 6.332031 -2.847656 6.3125 -2.640625 L 1.5 -2.640625 C 1.53125 -2.046875 1.726562 -1.582031 2.09375 -1.25 C 2.46875 -0.914062 2.921875 -0.75 3.453125 -0.75 C 3.890625 -0.75 4.25 -0.847656 4.53125 -1.046875 C 4.820312 -1.253906 5.023438 -1.523438 5.140625 -1.859375 L 6.21875 -1.859375 C 6.0625 -1.273438 5.738281 -0.800781 5.25 -0.4375 C 4.769531 -0.0820312 4.171875 0.09375 3.453125 0.09375 C 2.878906 0.09375 2.367188 -0.03125 1.921875 -0.28125 C 1.472656 -0.539062 1.117188 -0.90625 0.859375 -1.375 C 0.597656 -1.851562 0.46875 -2.40625 0.46875 -3.03125 C 0.46875 -3.644531 0.59375 -4.1875 0.84375 -4.65625 C 1.09375 -5.132812 1.441406 -5.5 1.890625 -5.75 C 2.347656 -6 2.867188 -6.125 3.453125 -6.125 C 4.023438 -6.125 4.53125 -6 4.96875 -5.75 C 5.40625 -5.5 5.742188 -5.15625 5.984375 -4.71875 C 6.222656 -4.28125 6.34375 -3.789062 6.34375 -3.25 Z M 5.3125 -3.453125 C 5.3125 -3.835938 5.226562 -4.164062 5.0625 -4.4375 C 4.894531 -4.707031 4.664062 -4.914062 4.375 -5.0625 C 4.082031 -5.207031 3.757812 -5.28125 3.40625 -5.28125 C 2.90625 -5.28125 2.472656 -5.117188 2.109375 -4.796875 C 1.753906 -4.472656 1.550781 -4.023438 1.5 -3.453125 Z M 5.3125 -3.453125 "/></g></g></g><g fill="#f7931f" fill-opacity="1"><g transform="translate(129.384776, 26.446433)"><g><path d="M 1.84375 -8.140625 L 1.84375 0 L 0.84375 0 L 0.84375 -8.140625 Z M 1.84375 -8.140625 "/></g></g></g><g fill="#f7931f" fill-opacity="1"><g transform="translate(133.036138, 26.446433)"><g/></g></g><g fill="#f7931f" fill-opacity="1"><g transform="translate(136.918376, 26.446433)"><g><path d="M 0.46875 -3.03125 C 0.46875 -3.644531 0.59375 -4.1875 0.84375 -4.65625 C 1.09375 -5.125 1.4375 -5.484375 1.875 -5.734375 C 2.3125 -5.992188 2.796875 -6.125 3.328125 -6.125 C 3.859375 -6.125 4.316406 -6.007812 4.703125 -5.78125 C 5.097656 -5.550781 5.390625 -5.265625 5.578125 -4.921875 L 5.578125 -6.03125 L 6.59375 -6.03125 L 6.59375 0 L 5.578125 0 L 5.578125 -1.125 C 5.378906 -0.769531 5.082031 -0.476562 4.6875 -0.25 C 4.300781 -0.0195312 3.847656 0.09375 3.328125 0.09375 C 2.785156 0.09375 2.296875 -0.0351562 1.859375 -0.296875 C 1.429688 -0.554688 1.09375 -0.925781 0.84375 -1.40625 C 0.59375 -1.882812 0.46875 -2.425781 0.46875 -3.03125 Z M 5.578125 -3.03125 C 5.578125 -3.476562 5.484375 -3.867188 5.296875 -4.203125 C 5.117188 -4.546875 4.875 -4.804688 4.5625 -4.984375 C 4.25 -5.171875 3.90625 -5.265625 3.53125 -5.265625 C 3.15625 -5.265625 2.8125 -5.175781 2.5 -5 C 2.195312 -4.820312 1.953125 -4.5625 1.765625 -4.21875 C 1.585938 -3.882812 1.5 -3.488281 1.5 -3.03125 C 1.5 -2.570312 1.585938 -2.171875 1.765625 -1.828125 C 1.953125 -1.484375 2.195312 -1.222656 2.5 -1.046875 C 2.8125 -0.867188 3.15625 -0.78125 3.53125 -0.78125 C 3.90625 -0.78125 4.25 -0.867188 4.5625 -1.046875 C 4.875 -1.222656 5.117188 -1.484375 5.296875 -1.828125 C 5.484375 -2.171875 5.578125 -2.570312 5.578125 -3.03125 Z M 5.578125 -3.03125 "/></g></g></g><g fill="#f7931f" fill-opacity="1"><g transform="translate(145.297144, 26.446433)"><g><path d="M 3.328125 -6.125 C 3.847656 -6.125 4.304688 -6.007812 4.703125 -5.78125 C 5.097656 -5.550781 5.390625 -5.265625 5.578125 -4.921875 L 5.578125 -6.03125 L 6.59375 -6.03125 L 6.59375 0.125 C 6.59375 0.675781 6.472656 1.164062 6.234375 1.59375 C 6.003906 2.03125 5.671875 2.367188 5.234375 2.609375 C 4.796875 2.847656 4.285156 2.96875 3.703125 2.96875 C 2.910156 2.96875 2.25 2.78125 1.71875 2.40625 C 1.195312 2.03125 0.890625 1.519531 0.796875 0.875 L 1.78125 0.875 C 1.894531 1.25 2.125 1.546875 2.46875 1.765625 C 2.8125 1.984375 3.222656 2.09375 3.703125 2.09375 C 4.253906 2.09375 4.703125 1.921875 5.046875 1.578125 C 5.398438 1.234375 5.578125 0.75 5.578125 0.125 L 5.578125 -1.140625 C 5.378906 -0.785156 5.082031 -0.488281 4.6875 -0.25 C 4.300781 -0.0195312 3.847656 0.09375 3.328125 0.09375 C 2.796875 0.09375 2.3125 -0.0351562 1.875 -0.296875 C 1.4375 -0.554688 1.09375 -0.925781 0.84375 -1.40625 C 0.59375 -1.882812 0.46875 -2.425781 0.46875 -3.03125 C 0.46875 -3.644531 0.59375 -4.1875 0.84375 -4.65625 C 1.09375 -5.125 1.4375 -5.484375 1.875 -5.734375 C 2.3125 -5.992188 2.796875 -6.125 3.328125 -6.125 Z M 5.578125 -3.03125 C 5.578125 -3.476562 5.484375 -3.867188 5.296875 -4.203125 C 5.117188 -4.546875 4.875 -4.804688 4.5625 -4.984375 C 4.25 -5.171875 3.90625 -5.265625 3.53125 -5.265625 C 3.15625 -5.265625 2.8125 -5.175781 2.5 -5 C 2.195312 -4.820312 1.953125 -4.5625 1.765625 -4.21875 C 1.585938 -3.882812 1.5 -3.488281 1.5 -3.03125 C 1.5 -2.570312 1.585938 -2.171875 1.765625 -1.828125 C 1.953125 -1.484375 2.195312 -1.222656 2.5 -1.046875 C 2.8125 -0.867188 3.15625 -0.78125 3.53125 -0.78125 C 3.90625 -0.78125 4.25 -0.867188 4.5625 -1.046875 C 4.875 -1.222656 5.117188 -1.484375 5.296875 -1.828125 C 5.484375 -2.171875 5.578125 -2.570312 5.578125 -3.03125 Z M 5.578125 -3.03125 "/></g></g></g><g fill="#f7931f" fill-opacity="1"><g transform="translate(153.675911, 26.446433)"><g><path d="M 6.34375 -3.25 C 6.34375 -3.050781 6.332031 -2.847656 6.3125 -2.640625 L 1.5 -2.640625 C 1.53125 -2.046875 1.726562 -1.582031 2.09375 -1.25 C 2.46875 -0.914062 2.921875 -0.75 3.453125 -0.75 C 3.890625 -0.75 4.25 -0.847656 4.53125 -1.046875 C 4.820312 -1.253906 5.023438 -1.523438 5.140625 -1.859375 L 6.21875 -1.859375 C 6.0625 -1.273438 5.738281 -0.800781 5.25 -0.4375 C 4.769531 -0.0820312 4.171875 0.09375 3.453125 0.09375 C 2.878906 0.09375 2.367188 -0.03125 1.921875 -0.28125 C 1.472656 -0.539062 1.117188 -0.90625 0.859375 -1.375 C 0.597656 -1.851562 0.46875 -2.40625 0.46875 -3.03125 C 0.46875 -3.644531 0.59375 -4.1875 0.84375 -4.65625 C 1.09375 -5.132812 1.441406 -5.5 1.890625 -5.75 C 2.347656 -6 2.867188 -6.125 3.453125 -6.125 C 4.023438 -6.125 4.53125 -6 4.96875 -5.75 C 5.40625 -5.5 5.742188 -5.15625 5.984375 -4.71875 C 6.222656 -4.28125 6.34375 -3.789062 6.34375 -3.25 Z M 5.3125 -3.453125 C 5.3125 -3.835938 5.226562 -4.164062 5.0625 -4.4375 C 4.894531 -4.707031 4.664062 -4.914062 4.375 -5.0625 C 4.082031 -5.207031 3.757812 -5.28125 3.40625 -5.28125 C 2.90625 -5.28125 2.472656 -5.117188 2.109375 -4.796875 C 1.753906 -4.472656 1.550781 -4.023438 1.5 -3.453125 Z M 5.3125 -3.453125 "/></g></g></g><g fill="#f7931f" fill-opacity="1"><g transform="translate(161.439022, 26.446433)"><g><path d="M 3.78125 -6.140625 C 4.519531 -6.140625 5.113281 -5.914062 5.5625 -5.46875 C 6.019531 -5.03125 6.25 -4.390625 6.25 -3.546875 L 6.25 0 L 5.265625 0 L 5.265625 -3.40625 C 5.265625 -4.007812 5.113281 -4.46875 4.8125 -4.78125 C 4.507812 -5.101562 4.097656 -5.265625 3.578125 -5.265625 C 3.046875 -5.265625 2.625 -5.097656 2.3125 -4.765625 C 2 -4.441406 1.84375 -3.960938 1.84375 -3.328125 L 1.84375 0 L 0.84375 0 L 0.84375 -6.03125 L 1.84375 -6.03125 L 1.84375 -5.171875 C 2.039062 -5.472656 2.3125 -5.707031 2.65625 -5.875 C 3 -6.050781 3.375 -6.140625 3.78125 -6.140625 Z M 3.78125 -6.140625 "/></g></g></g><g fill="#f7931f" fill-opacity="1"><g transform="translate(169.42201, 26.446433)"><g><path d="M 0.46875 -3.03125 C 0.46875 -3.644531 0.59375 -4.1875 0.84375 -4.65625 C 1.09375 -5.125 1.4375 -5.484375 1.875 -5.734375 C 2.320312 -5.992188 2.832031 -6.125 3.40625 -6.125 C 4.144531 -6.125 4.753906 -5.941406 5.234375 -5.578125 C 5.722656 -5.222656 6.039062 -4.726562 6.1875 -4.09375 L 5.109375 -4.09375 C 5.015625 -4.457031 4.816406 -4.742188 4.515625 -4.953125 C 4.210938 -5.171875 3.84375 -5.28125 3.40625 -5.28125 C 2.832031 -5.28125 2.367188 -5.082031 2.015625 -4.6875 C 1.671875 -4.300781 1.5 -3.75 1.5 -3.03125 C 1.5 -2.300781 1.671875 -1.738281 2.015625 -1.34375 C 2.367188 -0.945312 2.832031 -0.75 3.40625 -0.75 C 3.84375 -0.75 4.207031 -0.847656 4.5 -1.046875 C 4.800781 -1.253906 5.003906 -1.550781 5.109375 -1.9375 L 6.1875 -1.9375 C 6.03125 -1.320312 5.707031 -0.828125 5.21875 -0.453125 C 4.738281 -0.0859375 4.132812 0.09375 3.40625 0.09375 C 2.832031 0.09375 2.320312 -0.03125 1.875 -0.28125 C 1.4375 -0.539062 1.09375 -0.90625 0.84375 -1.375 C 0.59375 -1.84375 0.46875 -2.394531 0.46875 -3.03125 Z M 0.46875 -3.03125 "/></g></g></g><g fill="#f7931f" fill-opacity="1"><g transform="translate(177.042191, 26.446433)"><g><path d="M 6.03125 -6.03125 L 2.40625 2.84375 L 1.375 2.84375 L 2.5625 -0.0625 L 0.125 -6.03125 L 1.25 -6.03125 L 3.140625 -1.140625 L 5 -6.03125 Z M 6.03125 -6.03125 "/></g></g></g></svg>